<?xml version="1.0" encoding="UTF-8"?>
<svg xmlns="http://www.w3.org/2000/svg" xmlns:xlink="http://www.w3.org/1999/xlink" width="120pt" height="120pt" viewBox="0 0 120 120" version="1.1">
<g id="surface1">
<path style=" stroke:none;fill-rule:nonzero;fill:rgb(49.019608%,52.54902%,83.137255%);fill-opacity:1;" d="M 26 108 L 46 108 C 47.105469 108 48 107.105469 48 106 C 48 104.894531 47.105469 104 46 104 L 26 104 C 24.894531 104 24 104.894531 24 106 C 24 107.105469 24.894531 108 26 108 Z M 26 108 "/>
<path style=" stroke:none;fill-rule:nonzero;fill:rgb(49.019608%,52.54902%,83.137255%);fill-opacity:1;" d="M 14 112 C 17.3125 112 20 109.3125 20 106 C 20 102.6875 17.3125 100 14 100 C 10.6875 100 8 102.6875 8 106 C 8 109.3125 10.6875 112 14 112 Z M 14 104 C 15.105469 104 16 104.894531 16 106 C 16 107.105469 15.105469 108 14 108 C 12.894531 108 12 107.105469 12 106 C 12 104.894531 12.894531 104 14 104 Z M 14 104 "/>
<path style=" stroke:none;fill-rule:nonzero;fill:rgb(49.019608%,52.54902%,83.137255%);fill-opacity:1;" d="M 90 112 C 91.105469 112 92 111.105469 92 110 L 92 102 C 92 100.894531 91.105469 100 90 100 C 88.894531 100 88 100.894531 88 102 L 88 110 C 88 111.105469 88.894531 112 90 112 Z M 90 112 "/>
<path style=" stroke:none;fill-rule:nonzero;fill:rgb(49.019608%,52.54902%,83.137255%);fill-opacity:1;" d="M 82 112 C 83.105469 112 84 111.105469 84 110 L 84 102 C 84 100.894531 83.105469 100 82 100 C 80.894531 100 80 100.894531 80 102 L 80 110 C 80 111.105469 80.894531 112 82 112 Z M 82 112 "/>
<path style=" stroke:none;fill-rule:nonzero;fill:rgb(49.019608%,52.54902%,83.137255%);fill-opacity:1;" d="M 74 112 C 75.105469 112 76 111.105469 76 110 L 76 102 C 76 100.894531 75.105469 100 74 100 C 72.894531 100 72 100.894531 72 102 L 72 110 C 72 111.105469 72.894531 112 74 112 Z M 74 112 "/>
<path style=" stroke:none;fill-rule:nonzero;fill:rgb(49.019608%,52.54902%,83.137255%);fill-opacity:1;" d="M 66 112 C 67.105469 112 68 111.105469 68 110 L 68 102 C 68 100.894531 67.105469 100 66 100 C 64.894531 100 64 100.894531 64 102 L 64 110 C 64 111.105469 64.894531 112 66 112 Z M 66 112 "/>
<path style=" stroke:none;fill-rule:nonzero;fill:rgb(49.019608%,52.54902%,83.137255%);fill-opacity:1;" d="M 58 112 C 59.105469 112 60 111.105469 60 110 L 60 102 C 60 100.894531 59.105469 100 58 100 C 56.894531 100 56 100.894531 56 102 L 56 110 C 56 111.105469 56.894531 112 58 112 Z M 58 112 "/>
<path style=" stroke:none;fill-rule:nonzero;fill:rgb(49.019608%,52.54902%,83.137255%);fill-opacity:1;" d="M 120 30 C 119.980469 13.4375 106.5625 0.0195312 90 0 L 10 0 C 8.960938 -0.00390625 8.089844 0.789062 8 1.824219 L 0 93.824219 L 0 118 C 0 119.105469 0.894531 120 2 120 L 98 120 C 99.105469 120 100 119.105469 100 118 L 100 94 C 100 93.96875 100 93.855469 100 93.824219 L 97 59.152344 C 110.5 55.945312 120.023438 43.875 120 30 Z M 96 116 L 4 116 L 4 96 L 96 96 Z M 94.492188 55.613281 C 93.007812 55.875 91.503906 56.003906 90 56 C 79.265625 56.042969 69.617188 49.449219 65.765625 39.429688 C 65.386719 38.390625 64.238281 37.855469 63.203125 38.234375 C 62.164062 38.609375 61.628906 39.757812 62.003906 40.796875 C 62.015625 40.824219 62.027344 40.851562 62.039062 40.882812 C 66.484375 52.441406 77.613281 60.050781 90 60 C 90.96875 60 91.910156 59.949219 92.847656 59.859375 L 93.03125 59.859375 L 95.820312 92 L 4.183594 92 L 11.835938 4 L 75.035156 4 C 74.433594 4.34375 73.859375 4.710938 73.292969 5.09375 C 73.203125 5.152344 73.117188 5.21875 73.027344 5.28125 C 72.402344 5.710938 71.792969 6.167969 71.203125 6.644531 C 71.039062 6.777344 70.871094 6.910156 70.710938 7.046875 C 70.0625 7.59375 69.429688 8.15625 68.828125 8.757812 C 68.765625 8.816406 68.707031 8.886719 68.644531 8.957031 C 68.101562 9.507812 67.585938 10.082031 67.085938 10.675781 C 66.945312 10.835938 66.808594 10.996094 66.683594 11.164062 C 66.148438 11.824219 65.632812 12.5 65.15625 13.207031 C 65.113281 13.265625 65.078125 13.332031 65.035156 13.390625 C 64.597656 14.050781 64.191406 14.726562 63.804688 15.417969 C 63.699219 15.609375 63.59375 15.796875 63.492188 15.988281 C 63.09375 16.746094 62.710938 17.515625 62.371094 18.308594 C 62.351562 18.359375 62.335938 18.410156 62.3125 18.460938 C 62 19.210938 61.714844 19.984375 61.46875 20.765625 C 61.398438 20.976562 61.335938 21.1875 61.269531 21.398438 C 61.015625 22.238281 60.789062 23.085938 60.609375 23.949219 C 60.609375 23.976562 60.609375 24.007812 60.597656 24.039062 C 60.425781 24.875 60.300781 25.730469 60.195312 26.597656 C 60.171875 26.820312 60.144531 27.046875 60.125 27.277344 L 60.125 27.308594 L 54.925781 22.109375 C 54.160156 21.316406 52.890625 21.292969 52.097656 22.0625 C 51.304688 22.828125 51.28125 24.09375 52.046875 24.890625 C 52.066406 24.90625 52.082031 24.921875 52.097656 24.9375 L 60.585938 33.421875 C 61.363281 34.203125 62.632812 34.203125 63.410156 33.421875 L 71.898438 24.9375 C 72.691406 24.171875 72.714844 22.90625 71.945312 22.109375 C 71.179688 21.316406 69.914062 21.292969 69.117188 22.0625 C 69.101562 22.078125 69.085938 22.09375 69.070312 22.109375 L 64.199219 26.980469 C 65.867188 12.71875 78.777344 2.507812 93.039062 4.175781 C 107.304688 5.839844 117.515625 18.753906 115.847656 33.015625 C 114.515625 44.445312 105.828125 53.636719 94.492188 55.613281 Z M 94.492188 55.613281 "/>
<path style=" stroke:none;fill-rule:nonzero;fill:rgb(49.019608%,52.54902%,83.137255%);fill-opacity:1;" d="M 102 28 L 92 28 L 92 10 C 92 8.894531 91.105469 8 90 8 C 88.894531 8 88 8.894531 88 10 L 88 30 C 88 31.105469 88.894531 32 90 32 L 102 32 C 103.105469 32 104 31.105469 104 30 C 104 28.894531 103.105469 28 102 28 Z M 102 28 "/>
</g>
</svg>
